<svg width="65" height="65" viewBox="0 0 65 65" fill="none" xmlns="http://www.w3.org/2000/svg">
<path d="M54.3109 13.4185C50.1822 11.5282 45.8235 10.1872 41.3463 9.42969C40.7336 10.5249 40.1793 11.6518 39.6856 12.8056C34.9164 12.0869 30.0666 12.0869 25.2974 12.8056C24.8034 11.6519 24.249 10.5251 23.6366 9.42969C19.1565 10.1936 14.7949 11.5378 10.662 13.4283C2.45709 25.5677 0.232875 37.4054 1.34498 49.0752C6.14998 52.6252 11.5281 55.3253 17.2457 57.0576C18.5332 55.326 19.6724 53.4891 20.6513 51.5662C18.792 50.8718 16.9973 50.0151 15.2884 49.0059C15.7381 48.6797 16.1781 48.3436 16.6032 48.0174C21.576 50.356 27.0036 51.5685 32.4989 51.5685C37.9942 51.5685 43.4217 50.356 48.3947 48.0174C48.8247 48.3683 49.2645 48.7044 49.7093 49.0059C47.997 50.0167 46.1992 50.875 44.3366 51.5712C45.3143 53.4931 46.4537 55.3286 47.7422 57.0576C53.4645 55.3321 58.8469 52.6336 63.6527 49.0801C64.9576 35.5469 61.4236 23.8179 54.3109 13.4185ZM22.0599 41.8984C18.9608 41.8984 16.4005 39.0859 16.4005 35.6261C16.4005 32.1661 18.8718 29.3291 22.05 29.3291C25.2282 29.3291 27.7687 32.1661 27.7143 35.6261C27.66 39.0859 25.2182 41.8984 22.0599 41.8984ZM42.9378 41.8984C39.8338 41.8984 37.2834 39.0859 37.2834 35.6261C37.2834 32.1661 39.7548 29.3291 42.9378 29.3291C46.1209 29.3291 48.6417 32.1661 48.5874 35.6261C48.5329 39.0859 46.0962 41.8984 42.9378 41.8984Z" fill="white"/>
</svg>
