<svg width="65" height="65" viewBox="0 0 65 65" fill="none" xmlns="http://www.w3.org/2000/svg">
<path fill-rule="evenodd" clip-rule="evenodd" d="M32.4991 3.41016C16.4264 3.41016 3.4082 16.4283 3.4082 32.5011C3.4082 45.3738 11.7355 56.2465 23.2991 60.1011C24.7537 60.3556 25.2991 59.4829 25.2991 58.7192C25.2991 58.0283 25.2627 55.7374 25.2627 53.3011C17.9537 54.6465 16.0627 51.5192 15.4809 49.8829C15.1537 49.0465 13.7355 46.4647 12.4991 45.7738C11.4809 45.2283 10.0264 43.8829 12.4627 43.8465C14.7537 43.8102 16.39 45.9556 16.9355 46.8283C19.5537 51.2283 23.7355 49.992 25.4082 49.2283C25.6627 47.3374 26.4264 46.0647 27.2627 45.3374C20.79 44.6102 14.0264 42.1011 14.0264 30.9738C14.0264 27.8102 15.1537 25.192 17.0082 23.1556C16.7173 22.4283 15.6991 19.4465 17.2991 15.4465C17.2991 15.4465 19.7355 14.6829 25.2991 18.4283C27.6264 17.7738 30.0991 17.4465 32.5718 17.4465C35.0446 17.4465 37.5173 17.7738 39.8446 18.4283C45.4082 14.6465 47.8446 15.4465 47.8446 15.4465C49.4446 19.4465 48.4264 22.4283 48.1355 23.1556C49.99 25.192 51.1173 27.7738 51.1173 30.9738C51.1173 42.1374 44.3173 44.6102 37.8446 45.3374C38.8991 46.2465 39.8082 47.992 39.8082 50.7192C39.8082 54.6102 39.7718 57.7374 39.7718 58.7192C39.7718 59.4829 40.3173 60.392 41.7718 60.1011C47.547 58.1514 52.5652 54.44 56.1204 49.4887C59.6756 44.5377 61.5886 38.5965 61.59 32.5011C61.59 16.4283 48.5718 3.41016 32.4991 3.41016Z" fill="white"/>
</svg>
