<svg width="65" height="65" viewBox="0 0 65 65" fill="none" xmlns="http://www.w3.org/2000/svg">
<path d="M28.0039 32.5H36.5044C37.6979 32.5 38.8425 32.0259 39.6864 31.182C40.5303 30.3381 41.0044 29.1935 41.0044 28C41.0044 26.8065 40.5303 25.6619 39.6864 24.818C38.8425 23.9741 37.6979 23.5 36.5044 23.5H28.0039V32.5Z" fill="white"/>
<path fill-rule="evenodd" clip-rule="evenodd" d="M32.5039 62.5C49.0729 62.5 62.5039 49.069 62.5039 32.5C62.5039 15.931 49.0729 2.5 32.5039 2.5C15.9349 2.5 2.50391 15.931 2.50391 32.5C2.50391 49.069 15.9349 62.5 32.5039 62.5ZM22.0039 17.5H36.5044C39.2892 17.5 41.9599 18.6062 43.929 20.5754C45.8982 22.5445 47.0044 25.2152 47.0044 28C47.0044 30.7848 45.8982 33.4555 43.929 35.4246C41.9599 37.3938 39.2892 38.5 36.5044 38.5H28.0039V47.5H22.0039V17.5Z" fill="white"/>
</svg>
