<svg width="64" height="65" viewBox="0 0 64 65" fill="none" xmlns="http://www.w3.org/2000/svg">
<path fill-rule="evenodd" clip-rule="evenodd" d="M34.666 8.5C36.1388 8.5 37.3327 9.69391 37.3327 11.1667C37.3327 13.9956 38.4565 16.7088 40.4569 18.7091C42.4573 20.7095 45.1704 21.8333 47.9994 21.8333C49.4721 21.8333 50.666 23.0272 50.666 24.5C50.666 25.9728 49.4721 27.1667 47.9994 27.1667C44.0536 27.1667 40.2581 25.7092 37.3327 23.0924V43.1667C37.3327 45.8038 36.5507 48.3816 35.0856 50.5743C33.6205 52.7669 31.5382 54.4759 29.1018 55.4851C26.6655 56.4942 23.9846 56.7583 21.3981 56.2438C18.8117 55.7293 16.436 54.4595 14.5713 52.5948C12.7066 50.7301 11.4367 48.3543 10.9222 45.7679C10.4077 43.1815 10.6718 40.5006 11.681 38.0642C12.6901 35.6279 14.3991 33.5455 16.5918 32.0804C18.7844 30.6153 21.3623 29.8333 23.9994 29.8333C25.4721 29.8333 26.666 31.0272 26.666 32.5C26.666 33.9728 25.4721 35.1667 23.9994 35.1667C22.4171 35.1667 20.8704 35.6359 19.5548 36.5149C18.2392 37.394 17.2138 38.6434 16.6083 40.1052C16.0028 41.567 15.8444 43.1755 16.1531 44.7274C16.4618 46.2792 17.2237 47.7047 18.3425 48.8235C19.4613 49.9423 20.8868 50.7043 22.4386 51.013C23.9905 51.3216 25.599 51.1632 27.0608 50.5577C28.5226 49.9522 29.7721 48.9268 30.6511 47.6112C31.5302 46.2956 31.9994 44.7489 31.9994 43.1667V11.1667C31.9994 9.69391 33.1933 8.5 34.666 8.5Z" fill="white"/>
</svg>
