<svg width="65" height="65" viewBox="0 0 65 65" fill="none" xmlns="http://www.w3.org/2000/svg">
<g clip-path="url(#clip0_8773_32378)">
<path fill-rule="evenodd" clip-rule="evenodd" d="M64.5 32.5C64.5 50.1731 50.1731 64.5 32.5 64.5C14.8269 64.5 0.5 50.1731 0.5 32.5C0.5 14.8269 14.8269 0.5 32.5 0.5C50.1731 0.5 64.5 14.8269 64.5 32.5ZM25.0094 59.4868C22.2812 56.5116 19.9975 53.1223 18.2632 49.4241C16.3429 50.2517 14.5091 51.2416 12.7789 52.3765C16.1328 55.7044 20.3244 58.1892 25.0094 59.4868ZM10.1259 49.3371C12.2028 47.9332 14.4187 46.7192 16.7487 45.7202C15.5057 42.1813 14.7463 38.4148 14.5498 34.5H4.57033C4.96187 40.048 6.96972 45.1497 10.1259 49.3371ZM4.57033 30.5H14.5459C14.7351 26.5822 15.4878 22.8123 16.7249 19.2696C14.4037 18.2725 12.1957 17.0621 10.1259 15.6629C6.96972 19.8503 4.96187 24.952 4.57033 30.5ZM12.7789 12.6235C14.4999 13.7524 16.3236 14.7378 18.2328 15.5628C19.9505 11.8826 22.2118 8.50727 24.9136 5.53991C20.2672 6.8447 16.1099 9.3183 12.7789 12.6235ZM52.2201 52.3776C48.8655 55.7057 44.6731 58.1906 39.9872 59.4878C42.7157 56.5124 44.9997 53.1227 46.7342 49.4241C48.655 50.2519 50.4894 51.2422 52.2201 52.3776ZM54.8733 49.3383C58.0299 45.1506 60.0381 40.0485 60.4297 34.5H50.4476C50.2511 38.4148 49.4917 42.1813 48.2487 45.7202C50.5793 46.7195 52.7958 47.9338 54.8733 49.3383ZM60.4297 30.5C60.0381 24.9515 58.0299 19.8494 54.8733 15.6617C52.8029 17.0614 50.5944 18.2723 48.2725 19.2696C49.5096 22.8123 50.2623 26.5822 50.4515 30.5H60.4297ZM52.2201 12.6224C50.4986 13.7518 48.6744 14.7376 46.7646 15.5628C45.0467 11.8822 42.7851 8.50652 40.0829 5.53893C44.7302 6.84333 48.8884 9.31696 52.2201 12.6224ZM42.9933 16.9463C40.2834 17.7709 37.438 18.2844 34.4987 18.4454V5.62766C38.0263 8.78494 40.9276 12.6276 42.9933 16.9463ZM30.4987 5.62766V18.4454C27.5594 18.2844 24.714 17.7709 22.0041 16.9463C24.0698 12.6276 26.9711 8.78494 30.4987 5.62766ZM30.4987 30.5V22.4509C27.0229 22.2797 23.6638 21.6649 20.4768 20.6619C19.3991 23.7699 18.7353 27.0712 18.5512 30.5H30.4987ZM30.4987 34.5H18.5555C18.7468 37.9267 19.4174 41.2255 20.5013 44.3304C23.681 43.3319 27.0318 42.7198 30.4987 42.5491V34.5ZM34.4987 34.5H46.4419C46.2506 37.9267 45.58 41.2255 44.4961 44.3304C41.3164 43.3319 37.9656 42.7198 34.4987 42.5491V34.5ZM46.4462 30.5H34.4987V22.4509C37.9745 22.2797 41.3336 21.6649 44.5206 20.6619C45.5983 23.7699 46.2621 27.0712 46.4462 30.5ZM22.0368 48.0437C24.7369 47.225 27.5712 46.7149 30.4987 46.5546V59.2942C26.9897 56.1536 24.1004 52.3347 22.0368 48.0437ZM34.4987 46.5546V59.2942C38.0077 56.1535 40.897 52.3347 42.9606 48.0437C40.2605 47.225 37.4262 46.7149 34.4987 46.5546Z" fill="white"/>
</g>
<defs>
<clipPath id="clip0_8773_32378">
<rect width="64" height="64" fill="white" transform="translate(0.5 0.5)"/>
</clipPath>
</defs>
</svg>
