<svg width="65" height="65" viewBox="0 0 65 65" fill="none" xmlns="http://www.w3.org/2000/svg">
<g clip-path="url(#clip0_8754_32374)">
<path d="M63.0659 17.0781C64.4014 22.0611 64.4014 32.458 64.4014 32.458C64.4014 32.458 64.4014 42.8548 63.0659 47.8373C62.3312 50.5866 60.1662 52.752 57.417 53.4868C52.4334 54.8217 32.4524 54.8217 32.4524 54.8217C32.4524 54.8217 12.4713 54.8217 7.48773 53.4868C4.73902 52.752 2.57362 50.5866 1.83882 47.8373C0.503906 42.8548 0.503906 32.458 0.503906 32.458C0.503906 32.458 0.503906 22.0611 1.83882 17.0781C2.57362 14.3289 4.73902 12.164 7.48773 11.4292C12.4713 10.0938 32.4524 10.0938 32.4524 10.0938C32.4524 10.0938 52.4334 10.0938 57.417 11.4292C60.1662 12.164 62.3312 14.3289 63.0659 17.0781ZM26.0624 42.0428L42.663 32.458L26.0624 22.8733V42.0428Z" fill="white"/>
</g>
<defs>
<clipPath id="clip0_8754_32374">
<rect width="64" height="64" fill="white" transform="translate(0.503906 0.5)"/>
</clipPath>
</defs>
</svg>
